#!OML:ASF X:\für Bonn\!DataBase\2005_08_10_Bjorn_Final\c3d\bjorn.ASF
:FULLY-SPECIFIED
:DEGREES
162
root 0.613327 19.1594 1.56771 -172.352 -0.0336541 179.316
lowerback -5.83645 2.26103 2.85335
upperback 4.996 2.62768 -0.074428
thorax 8.68996 1.40244 -1.33515
lowerneck -21.6103 -2.09146 -0.676177
upperneck 17.4846 -2.30324 -1.9784
head 9.02516 -1.38013 -0.893954
rclavicle -3.47873e-014 9.93923e-015
rhumerus 81.0901 2.33682 -73.7231
rradius 6.04055
rwrist 47.3521
rhand -10.653 6.95323
rfingers 7.12502
rthumb 15.3548 -22.4566
lclavicle -3.47873e-014 9.93923e-015
lhumerus 84.0602 -6.70419 77.7466
lradius 7.03171
lwrist -48.1807
lhand -8.05133 -3.83686
lfingers 7.12502
lthumb 17.8595 25.3631
rfemur -16.5677 -17.7716 17.0625
rtibia 33.4721
rfoot -14.1393 25.2752
rtoes 0.557114
lfemur -13.2046 6.96638 -19.2527
ltibia 29.9605
lfoot -18.9593 -2.9185
ltoes -2.27895
163
root 0.610127 19.1456 1.54359 -172.255 -0.14429 179.279
lowerback -6.10978 2.23853 2.8642
upperback 4.96338 2.59886 -0.125496
thorax 8.81709 1.39405 -1.38954
lowerneck -21.5214 -2.09684 -0.705832
upperneck 17.5334 -2.32096 -1.90315
head 9.0277 -1.38266 -0.865233
rclavicle 1.81888e-014 -5.96354e-015
rhumerus 81.2699 2.24751 -73.6968
rradius 6.03517
rwrist 47.4794
rhand -10.5227 6.93926
rfingers 7.12502
rthumb 15.4802 -22.461
lclavicle 1.81888e-014 -5.96354e-015
lhumerus 84.2341 -6.65234 77.5891
lradius 7.00057
lwrist -48.1834
lhand -7.66746 -4.0359
lfingers 7.12502
lthumb 18.2288 25.13
rfemur -16.5008 -18.2104 16.9998
rtibia 33.319
rfoot -14.0653 25.7719
rtoes 1.1324
lfemur -13.2964 7.60363 -19.2557
ltibia 30.1251
lfoot -19.1058 -3.6051
ltoes -2.41775
164
root 0.606149 19.1338 1.52018 -172.112 -0.270449 179.329
lowerback -6.40717 2.23498 2.98184
upperback 4.89404 2.58567 -0.168221
thorax 8.92455 1.40002 -1.49266
lowerneck -21.3061 -2.11805 -0.71002
upperneck 17.52 -2.37428 -1.81349
head 8.98615 -1.39813 -0.838036
rclavicle -1.49089e-014 -1.07344e-014
rhumerus 81.4031 2.13155 -73.6805
rradius 6.02347
rwrist 47.6193
rhand -10.325 6.98323
rfingers 7.12502
rthumb 15.6707 -22.4022
lclavicle -1.49089e-014 -1.07344e-014
lhumerus 84.4044 -6.64977 77.4299
lradius 6.87784
lwrist -48.1436
lhand -7.46573 -4.24
lfingers 7.12502
lthumb 18.4228 24.9076
rfemur -16.492 -18.748 17.0598
rtibia 33.1447
rfoot -13.8153 26.3212
rtoes 1.77157
lfemur -13.47 8.05479 -19.1752
ltibia 30.3228
lfoot -19.3134 -4.06976
ltoes -2.73941
165
root 0.603814 19.1219 1.49934 -171.961 -0.410222 179.397
lowerback -6.69906 2.20583 3.08161
upperback 4.8328 2.53649 -0.189306
thorax 9.03346 1.38627 -1.56856
lowerneck -21.0862 -2.11424 -0.706805
upperneck 17.4713 -2.38837 -1.75545
head 8.93142 -1.39821 -0.817012
rclavicle 5.86415e-015 -4.37326e-015
rhumerus 81.5684 2.0751 -73.6722
rradius 6.01925
rwrist 47.6706
rhand -10.1607 7.02527
rfingers 7.12502
rthumb 15.8289 -22.3476
lclavicle 5.86415e-015 -4.37326e-015
lhumerus 84.5681 -6.58226 77.2628
lradius 6.70303
lwrist -48.1024
lhand -7.43426 -4.51034
lfingers 7.12502
lthumb 18.4531 24.6344
rfemur -16.4441 -19.0929 17.1708
rtibia 32.9605
rfoot -13.8844 26.5698
rtoes 1.69948
lfemur -13.6746 8.50229 -19.0719
ltibia 30.5396
lfoot -19.4906 -4.52307
ltoes -3.08743
166
root 0.60044 19.112 1.4803 -171.823 -0.568141 179.497
lowerback -6.94059 2.18888 3.24011
upperback 4.75364 2.49944 -0.217603
thorax 9.09709 1.38191 -1.6857
lowerneck -20.7581 -2.12985 -0.712159
upperneck 17.3566 -2.4372 -1.65454
head 8.83551 -1.40994 -0.782331
rclavicle 3.97569e-015 1.59028e-015
rhumerus 81.688 1.96604 -73.6651
rradius 5.98042
rwrist 47.7097
rhand -9.99388 7.13146
rfingers 7.12502
rthumb 15.9895 -22.2286
lclavicle 3.97569e-015 1.59028e-015
lhumerus 84.6761 -6.59186 77.0988
lradius 6.49562
lwrist -48.2015
lhand -7.6882 -4.76926
lfingers 7.12502
lthumb 18.2088 24.3985
rfemur -16.39 -19.5357 17.3206
rtibia 32.7749
rfoot -13.9301 26.8684
rtoes 1.46918
lfemur -13.8819 8.94192 -18.9343
ltibia 30.7531
lfoot -19.6545 -4.90785
ltoes -3.68646
167
root 0.597184 19.1018 1.46487 -171.739 -0.733311 179.577
lowerback -7.09398 2.15596 3.35212
upperback 4.69029 2.4444 -0.226341
thorax 9.12121 1.36408 -1.76191
lowerneck -20.4488 -2.1391 -0.720562
upperneck 17.249 -2.47081 -1.57837
head 8.74538 -1.41793 -0.753997
rclavicle 1.05356e-014 1.51076e-014
rhumerus 81.8597 1.89341 -73.6356
rradius 5.8621
rwrist 47.7534
rhand -9.86645 7.26335
rfingers 7.12502
rthumb 16.1122 -22.0869
lclavicle 1.05356e-014 1.51076e-014
lhumerus 84.7008 -6.58984 76.962
lradius 6.33348
lwrist -48.345
lhand -8.05502 -5.02722
lfingers 7.12502
lthumb 17.8559 24.173
rfemur -16.2956 -19.8735 17.4376
rtibia 32.6008
rfoot -13.9415 27.0759
rtoes 1.4978
lfemur -14.0451 9.37111 -18.8117
ltibia 30.9533
lfoot -19.799 -5.29368
ltoes -4.35303
168
root 0.5938 19.0926 1.45098 -171.736 -0.881679 179.558
lowerback -7.17694 2.1147 3.365
upperback 4.6847 2.38945 -0.264685
thorax 9.16314 1.34064 -1.81569
lowerneck -20.1904 -2.135 -0.690124
upperneck 17.108 -2.48855 -1.53107
head 8.65204 -1.41839 -0.739931
rclavicle -2.16675e-014 -1.59028e-015
rhumerus 82.0474 1.80742 -73.6154
rradius 5.75531
rwrist 47.797
rhand -9.75437 7.36412
rfingers 7.12502
rthumb 16.2202 -21.9773
lclavicle -2.16675e-014 -1.59028e-015
lhumerus 84.6923 -6.59096 76.8117
lradius 6.24148
lwrist -48.3386
lhand -8.44814 -5.23202
lfingers 7.12502
lthumb 17.4776 24.0023
rfemur -16.1208 -20.0362 17.4102
rtibia 32.4406
rfoot -13.9552 27.1236
rtoes 1.72662
lfemur -14.1138 9.79882 -18.7933
ltibia 31.1302
lfoot -19.8974 -5.71456
ltoes -4.85174
169
root 0.588588 19.0843 1.44095 -171.781 -1.03377 179.556
lowerback -7.18058 2.07812 3.41633
upperback 4.71195 2.33596 -0.302903
thorax 9.19624 1.3195 -1.89286
lowerneck -20.0296 -2.14561 -0.653669
upperneck 17.0137 -2.52552 -1.48517
head 8.59158 -1.42771 -0.731728
rclavicle 1.72943e-014 3.97569e-016
rhumerus 82.2057 1.71504 -73.6016
rradius 5.72931
rwrist 47.9322
rhand -9.64982 7.45927
rfingers 7.12502
rthumb 16.3208 -21.8739
lclavicle 1.72943e-014 3.97569e-016
lhumerus 84.6224 -6.64005 76.6682
lradius 6.25497
lwrist -48.2816
lhand -8.40872 -5.40844
lfingers 7.12502
lthumb 17.5155 23.8225
rfemur -15.9156 -20.2047 17.3893
rtibia 32.2916
rfoot -13.9319 27.1834
rtoes 1.99214
lfemur -14.1319 10.2214 -18.758
ltibia 31.2829
lfoot -19.9802 -6.12198
ltoes -5.6638
170
root 0.583152 19.0775 1.43443 -171.852 -1.16832 179.627
lowerback -7.14738 2.05013 3.52433
upperback 4.76181 2.28183 -0.288437
thorax 9.23268 1.29904 -1.94673
lowerneck -19.911 -2.16477 -0.717736
upperneck 16.9194 -2.5477 -1.41971
head 8.54052 -1.43456 -0.699238
rclavicle 1.23246e-014 2.38542e-015
rhumerus 82.3303 1.65387 -73.5385
rradius 5.76657
rwrist 48.0154
rhand -9.45906 7.51777
rfingers 7.12502
rthumb 16.5045 -21.8003
lclavicle 1.23246e-014 2.38542e-015
lhumerus 84.4871 -6.69879 76.5872
lradius 6.3303
lwrist -48.1893
lhand -8.19281 -5.56751
lfingers 7.12502
lthumb 17.7233 23.6448
rfemur -15.7089 -20.2492 17.4515
rtibia 32.1545
rfoot -14.0699 27.092
rtoes 1.84327
lfemur -14.1253 10.6731 -18.6415
ltibia 31.4002
lfoot -19.9907 -6.5324
ltoes -6.49405
171
root 0.577586 19.0742 1.43166 -171.954 -1.35262 179.747
lowerback -7.03978 2.00013 3.6859
upperback 4.81377 2.19229 -0.258132
thorax 9.22685 1.2632 -2.0215
lowerneck -19.7667 -2.17206 -0.768023
upperneck 16.7645 -2.55795 -1.34734
head 8.46436 -1.43342 -0.664017
rclavicle -2.0276e-014 -6.36111e-015
rhumerus 82.3541 1.65353 -73.5043
rradius 5.90048
rwrist 48.0122
rhand -9.30375 7.54529
rfingers 7.12502
rthumb 16.654 -21.7602
lclavicle -2.0276e-014 -6.36111e-015
lhumerus 84.3142 -6.74668 76.4989
lradius 6.41322
lwrist -48.1807
lhand -7.98817 -5.71526
lfingers 7.12502
lthumb 17.9202 23.4791
rfemur -15.4893 -19.9355 17.576
rtibia 32.0193
rfoot -14.3101 26.6315
rtoes 1.76558
lfemur -14.0928 11.0812 -18.4601
ltibia 31.489
lfoot -19.9319 -7.02073
ltoes -6.90143
